<svg version="1.2" xmlns="http://www.w3.org/2000/svg" viewBox="0 0 50 50" width="50" height="50">
	<title>24hours_20d51c08e0-svg</title>
	<style>
		.s0 { fill: none;stroke: #080000;stroke-width: 2 } 
		.s1 { fill: none;stroke: #080000;stroke-linecap: square;stroke-width: 2 } 
		.s2 { fill: #080000 } 
	</style>
	<path id="Layer" fill-rule="evenodd" class="s0" d="m6.7 35.9c-2.9-4.8-3.7-10.6-2.3-16.1 1.3-5.5 4.8-10.2 9.7-13.1 4.8-2.9 10.6-3.7 16.1-2.3 5.5 1.3 10.2 4.8 13.1 9.7 2.9 4.8 3.7 10.6 2.3 16.1-1.3 5.5-4.8 10.2-9.7 13.1-4.8 2.9-10.6 3.7-16.1 2.3-5.5-1.3-10.2-4.8-13.1-9.7z"/>
	<path id="Layer" fill-rule="evenodd" class="s1" d="m24.9 4.8v4.7"/>
	<path id="Layer" fill-rule="evenodd" class="s1" d="m4.9 24.9h4.6"/>
	<path id="Layer" fill-rule="evenodd" class="s1" d="m10.8 39.1l3.2-3.3"/>
	<path id="Layer" fill-rule="evenodd" class="s1" d="m10.8 10.7l3.2 3.3"/>
	<path id="Layer" fill-rule="evenodd" class="s1" d="m24.9 40.3v4.6"/>
	<path id="Layer" fill-rule="evenodd" class="s1" d="m40.4 24.9h4.6"/>
	<path id="Layer" fill-rule="evenodd" class="s1" d="m35.8 14l3.3-3.3"/>
	<path id="Layer" fill-rule="evenodd" class="s1" d="m35.8 35.8l3.3 3.3"/>
	<path id="Layer" class="s2" d="m24.3 29v1.6h-8.3v-1.4l4-4.4q0.7-0.7 1.1-1.3 0.3-0.5 0.5-1 0.2-0.4 0.2-0.8 0-0.6-0.3-1-0.2-0.5-0.6-0.7-0.4-0.3-1-0.3-0.7 0-1.2 0.3-0.4 0.3-0.7 0.8-0.2 0.5-0.2 1.2h-2q0-1.1 0.4-2 0.5-0.9 1.5-1.4 0.9-0.5 2.2-0.5 1.3 0 2.1 0.4 0.9 0.4 1.3 1.2 0.5 0.7 0.5 1.8 0 0.5-0.2 1.1-0.2 0.6-0.5 1.2-0.4 0.5-0.8 1.1-0.5 0.5-1.1 1.1l-2.6 3zm10.1-2.8v1.6h-8.9l-0.1-1.2 5.3-8.4h1.7l-1.8 3.1-3.1 4.9zm-1.5-8v12.4h-2.1v-12.4z"/>
</svg>