<svg version="1.2" xmlns="http://www.w3.org/2000/svg" viewBox="0 0 48 48" width="48" height="48">
	<title>love_8ce254806d-svg</title>
	<style>
		.s0 { fill: none;stroke: #080000;stroke-width: 2 } 
	</style>
	<path id="Layer" fill-rule="evenodd" class="s0" d="m21.3 41.7c-6.1-5.5-11.1-10-14.5-14.2-3.5-4.2-5.3-8-5.3-12.1 0-6.7 5.2-12 11.9-12 3.8 0 7.5 1.8 9.8 4.6l0.8 0.9 0.8-0.9c2.3-2.8 6-4.6 9.8-4.6 6.7 0 11.9 5.3 11.9 12 0 4.1-1.8 7.9-5.3 12.1-3.4 4.2-8.4 8.7-14.4 14.2l-0.1 0.1-2.7 2.4z"/>
</svg>